<svg xmlns="http://www.w3.org/2000/svg" width="500" height="500" style="width:100%;height:100%"><defs><clipPath id="a"><path d="M0 0h500v500H0z"/></clipPath></defs><g clip-path="url(#a)"><path stroke-linecap="round" stroke-linejoin="round" stroke="#121331" stroke-width="12.04" d="M188.987 209.97v-38.092c0-30.547 24.763-55.31 55.31-55.31h11.406c30.547 0 55.31 24.763 55.31 55.31v38.092" fill="none" display="block"/><g display="block"><path stroke-linecap="round" stroke-linejoin="round" stroke="#121331" stroke-width="12.04" d="M339.043 382H160.957c-6.6 0-12-5.4-12-12V221.97c0-6.6 5.4-12 12-12h178.086c6.6 0 12 5.4 12 12V370c0 6.6-5.4 12-12 12z" fill="none"/><path stroke-linecap="round" stroke-linejoin="round" stroke="#08A88A" stroke-width="12.04" d="M225.21 319.879c7.212 9.097 19.008 14.141 30.586 12.671 4.617-.586 9.187-2.198 12.774-5.164 3.587-2.966 6.1-7.378 6.213-12.031.66-27.099-48.598-13.423-45.781-39.954.742-6.987 6.358-12.901 13.04-15.068 12.189-3.953 25.914 2.586 32.174 13.296M250 350.731v-17.982M250 259.184V241.24" fill="none"/><g><path stroke-linecap="round" stroke-linejoin="round" stroke="#121331" stroke-width="12.04" d="M149.075 270.868h24.858M149.075 320.868h24.858" fill="none"/></g><g><path stroke-linecap="round" stroke-linejoin="round" stroke="#121331" stroke-width="12.04" d="M326.302 270.868h24.858M326.302 320.868h24.858" fill="none"/></g></g></g></svg>